<svg xmlns="http://www.w3.org/2000/svg" viewBox="0 0 512 512" role="img" aria-label="축제모아">
<rect width="512" height="512" rx="113" fill="#E0502F"/>
<line x1="312.3" y1="256.0" x2="409.6" y2="256.0" stroke="#fff" stroke-width="28.2"/>
<circle cx="409.6" cy="256.0" r="18.4" fill="#fff"/>
<line x1="295.8" y1="295.8" x2="364.6" y2="364.6" stroke="#fff" stroke-width="28.2"/>
<circle cx="364.6" cy="364.6" r="18.4" fill="#fff"/>
<line x1="256.0" y1="312.3" x2="256.0" y2="409.6" stroke="#fff" stroke-width="28.2"/>
<circle cx="256.0" cy="409.6" r="18.4" fill="#fff"/>
<line x1="216.2" y1="295.8" x2="147.4" y2="364.6" stroke="#fff" stroke-width="28.2"/>
<circle cx="147.4" cy="364.6" r="18.4" fill="#fff"/>
<line x1="199.7" y1="256.0" x2="102.4" y2="256.0" stroke="#fff" stroke-width="28.2"/>
<circle cx="102.4" cy="256.0" r="18.4" fill="#fff"/>
<line x1="216.2" y1="216.2" x2="147.4" y2="147.4" stroke="#fff" stroke-width="28.2"/>
<circle cx="147.4" cy="147.4" r="18.4" fill="#fff"/>
<line x1="256.0" y1="199.7" x2="256.0" y2="102.4" stroke="#fff" stroke-width="28.2"/>
<circle cx="256.0" cy="102.4" r="18.4" fill="#fff"/>
<line x1="295.8" y1="216.2" x2="364.6" y2="147.4" stroke="#fff" stroke-width="28.2"/>
<circle cx="364.6" cy="147.4" r="18.4" fill="#fff"/>
<circle cx="256" cy="256" r="43.5" fill="#fff"/>
</svg>